<svg xmlns="http://www.w3.org/2000/svg" viewBox="0 0 123.62 85.34"><g fill="#1A8FA0">
<path d="M0,85.34C1.63,58.38,14.93,21.68,31.06,0c-1.58,26.96-14.97,63.62-31.06,85.34h0Z"></path>
<path d="M23.14,85.34C24.77,58.38,38.07,21.68,54.2,0c-1.58,26.96-14.97,63.62-31.06,85.34h0Z"></path>
<path d="M46.28,85.34C47.91,58.38,61.21,21.68,77.34,0c-1.58,26.96-14.97,63.62-31.06,85.34h0Z"></path>
<path d="M69.42,85.34C71.05,58.38,84.34,21.68,100.48,0c-1.58,26.96-14.97,63.62-31.06,85.34h0Z"></path>
<path d="M92.56,85.34c1.63-26.95,14.93-63.65,31.06-85.34-1.58,26.96-14.97,63.62-31.06,85.34h0Z"></path>
</g></svg>
