<svg xmlns="http://www.w3.org/2000/svg" viewBox="0 0 227.24 227.24"><g fill="#A8D8E0">
<path d="M116.17,115.47l-67.48,87.51,62.37-91.22c2.51-3.46,7.63.23,5.11,3.71h0Z"></path>
<path d="M112.64,116.62L8.57,79.48l106.03,31.13c4.07,1.34,2.15,7.31-1.95,6.01h0Z"></path>
<path d="M116.17,111.76l62.37,91.22-67.48-87.51c-2.51-3.46,2.58-7.19,5.11-3.71h0Z"></path>
<path d="M112.64,110.61l106.03-31.13-104.08,37.14c-4.08,1.3-6.04-4.65-1.95-6.01h0Z"></path>
<path d="M110.58,112.75L144.06,7.44l-27.41,107.05c-1.2,4.11-7.23,2.41-6.07-1.74h0Z"></path>
<path d="M110.58,114.49L83.17,7.44l33.48,105.31c1.16,4.12-4.86,5.87-6.07,1.74h0Z"></path>
<path d="M114.59,116.62l-106.03,31.13,104.08-37.14c4.08-1.3,6.04,4.65,1.95,6.01h0Z"></path>
<path d="M114.59,110.61l104.08,37.14-106.03-31.13c-4.07-1.34-2.15-7.31,1.95-6.01h0Z"></path>
</g>
<circle cx="113.62" cy="113.62" r="110.46" fill="none" stroke="#A8D8E0" stroke-width="6"></circle>
<path fill="#F2C12E" d="M114.08,91.96l4.57.06c3.92.05,7.53,2.13,9.55,5.48l5.69,9.45c2.72,4.52,1.96,10.32-1.84,13.98l-17.97,17.36-17.97-17.36c-3.79-3.66-4.56-9.46-1.84-13.98l5.69-9.45c2.02-3.36,5.63-5.43,9.55-5.48,0,0,4.57-.06,4.57-.06Z"></path>
<circle cx="114.08" cy="112.36" r="15.08" fill="#1A2B2E"></circle></svg>
